# xmcd
# Track frame offsets:
# 150
# 13566
# 29995
# 41987
# 59687
# 77057
# 93163
# 108801
# 121221
# 135481
#
# Disc length: 1973 seconds
# Revision: 0
# Processed by: cddbd v1.4PL0 Copyright (c) Steve Scherf et al.
# Submitted via: VisiTrax 2.9.5.180 - For more info visit www.synapsa.com
#
DISCID=8207b30a
DTITLE=Benny Berry - Things I want to sing about
DYEAR=1999
DGENRE=Country
TTITLE0=Some things I want to sing about
TTITLE1=There goes the farm
TTITLE2=Long hard ride
TTITLE3=Can't control the wind
TTITLE4=Breaking ground
TTITLE5=Every drop of water
TTITLE6=Believe in miracles
TTITLE7=Without love
TTITLE8=Lizzy
TTITLE9=The love of god
EXTD=
EXTT0=
EXTT1=
EXTT2=
EXTT3=
EXTT4=
EXTT5=
EXTT6=
EXTT7=
EXTT8=
EXTT9=
PLAYORDER=
